<svg width="215" height="32" viewBox="0 0 215 32" fill="none" xmlns="http://www.w3.org/2000/svg">
<mask id="path-1-outside-1_17_20" maskUnits="userSpaceOnUse" x="0" y="0" width="215" height="32" fill="black">
<rect fill="white" width="215" height="32"/>
<path d="M1.2 30V2.48H10.76C14.76 2.48 18.0133 3.05333 20.52 4.2C23.0533 5.34666 24.9067 6.93333 26.08 8.96C27.28 10.9867 27.88 13.3467 27.88 16.04C27.88 20.44 26.4267 23.8667 23.52 26.32C20.64 28.7733 16.2533 30 10.36 30H1.2ZM10.04 23H12.6C14.7333 23 16.32 22.36 17.36 21.08C18.4 19.7733 18.92 18.0667 18.92 15.96C18.92 14.0133 18.4133 12.4533 17.4 11.28C16.4133 10.08 14.8133 9.48 12.6 9.48H10.04V23ZM51.9619 30.64C50.0419 30.64 48.4552 30.36 47.2019 29.8C45.9485 29.2133 44.9485 28.4133 44.2019 27.4C43.4552 26.3867 42.8952 25.2 42.5219 23.84C42.1485 22.48 41.8952 21.0133 41.7619 19.44H39.8819V30H31.1219V2.48H42.4419C46.8152 2.48 49.9619 3.25333 51.8819 4.8C53.8285 6.32 54.8019 8.38667 54.8019 11C54.8019 12.5733 54.3752 13.9867 53.5219 15.24C52.6685 16.4667 51.2952 17.4933 49.4019 18.32C49.5085 18.9067 49.6019 19.3867 49.6819 19.76C49.7619 20.1333 49.8819 20.5467 50.0419 21C50.3885 21.96 50.8152 22.6267 51.3219 23C51.8552 23.3733 52.5752 23.56 53.4819 23.56C54.0685 23.56 54.6552 23.48 55.2419 23.32L55.7219 29.88C55.1885 30.0933 54.6152 30.2667 54.0019 30.4C53.4152 30.56 52.7352 30.64 51.9619 30.64ZM39.8819 13.96H41.4019C43.3752 13.96 44.7619 13.7467 45.5619 13.32C46.3885 12.8667 46.8019 12.1067 46.8019 11.04C46.8019 10.1333 46.4685 9.48 45.8019 9.08C45.1352 8.65333 44.0819 8.44 42.6419 8.44H39.8819V13.96ZM58.1531 30V2.48H67.1931V30H58.1531ZM77.5106 30L69.3506 2.48H78.7906L83.0306 19.64L87.2706 2.48H96.3106L87.7106 30H77.5106ZM98.2703 30V2.48H117.59V8.56H107.99V13.44H116.75V18.48H107.99V23.72H117.59V30H98.2703Z"/>
<path d="M129.6 30.64C127.92 30.64 126.213 30.4267 124.48 30C122.747 29.6 121.28 29.0533 120.08 28.36L121.52 21.84C123.067 22.6667 124.507 23.2133 125.84 23.48C127.2 23.72 128.453 23.84 129.6 23.84C130.667 23.84 131.467 23.6667 132 23.32C132.56 22.9733 132.84 22.5067 132.84 21.92C132.84 21.3867 132.533 20.9733 131.92 20.68C131.307 20.36 130.507 20.0667 129.52 19.8C128.56 19.5333 127.533 19.2267 126.44 18.88C125.347 18.5067 124.307 18.0267 123.32 17.44C122.36 16.8267 121.573 16.0267 120.96 15.04C120.347 14.0267 120.04 12.76 120.04 11.24C120.04 9.32 120.507 7.66667 121.44 6.28C122.373 4.86667 123.707 3.78667 125.44 3.04C127.173 2.26667 129.213 1.88 131.56 1.88C133.133 1.88 134.667 2.09333 136.16 2.52C137.68 2.92 138.893 3.46666 139.8 4.16L138.44 10.04C137.08 9.48 135.853 9.08 134.76 8.84C133.693 8.57333 132.68 8.44 131.72 8.44C130.6 8.44 129.747 8.6 129.16 8.92C128.573 9.24 128.28 9.66666 128.28 10.2C128.28 10.7067 128.587 11.12 129.2 11.44C129.813 11.76 130.6 12.0667 131.56 12.36C132.52 12.6533 133.547 12.9867 134.64 13.36C135.733 13.7333 136.76 14.2267 137.72 14.84C138.68 15.4533 139.467 16.2533 140.08 17.24C140.693 18.2267 141 19.4667 141 20.96C141 24.0533 139.987 26.44 137.96 28.12C135.96 29.8 133.173 30.64 129.6 30.64ZM141.699 30L149.299 2.48H162.259L170.219 30H160.419L159.379 24.72H152.259L151.099 30H141.699ZM153.099 19.8H158.419L155.819 7.76L153.099 19.8ZM172.372 30V2.48H191.332V8.56H180.972V14.12H190.572V19.48H180.972V30H172.372ZM194.598 30V2.48H213.918V8.56H204.318V13.44H213.078V18.48H204.318V23.72H213.918V30H194.598Z"/>
</mask>
<path d="M1.2 30V2.48H10.76C14.76 2.48 18.0133 3.05333 20.52 4.2C23.0533 5.34666 24.9067 6.93333 26.08 8.96C27.28 10.9867 27.88 13.3467 27.88 16.04C27.88 20.44 26.4267 23.8667 23.52 26.32C20.64 28.7733 16.2533 30 10.36 30H1.2ZM10.04 23H12.6C14.7333 23 16.32 22.36 17.36 21.08C18.4 19.7733 18.92 18.0667 18.92 15.96C18.92 14.0133 18.4133 12.4533 17.4 11.28C16.4133 10.08 14.8133 9.48 12.6 9.48H10.04V23ZM51.9619 30.64C50.0419 30.64 48.4552 30.36 47.2019 29.8C45.9485 29.2133 44.9485 28.4133 44.2019 27.4C43.4552 26.3867 42.8952 25.2 42.5219 23.84C42.1485 22.48 41.8952 21.0133 41.7619 19.44H39.8819V30H31.1219V2.48H42.4419C46.8152 2.48 49.9619 3.25333 51.8819 4.8C53.8285 6.32 54.8019 8.38667 54.8019 11C54.8019 12.5733 54.3752 13.9867 53.5219 15.24C52.6685 16.4667 51.2952 17.4933 49.4019 18.32C49.5085 18.9067 49.6019 19.3867 49.6819 19.76C49.7619 20.1333 49.8819 20.5467 50.0419 21C50.3885 21.96 50.8152 22.6267 51.3219 23C51.8552 23.3733 52.5752 23.56 53.4819 23.56C54.0685 23.56 54.6552 23.48 55.2419 23.32L55.7219 29.88C55.1885 30.0933 54.6152 30.2667 54.0019 30.4C53.4152 30.56 52.7352 30.64 51.9619 30.64ZM39.8819 13.96H41.4019C43.3752 13.96 44.7619 13.7467 45.5619 13.32C46.3885 12.8667 46.8019 12.1067 46.8019 11.04C46.8019 10.1333 46.4685 9.48 45.8019 9.08C45.1352 8.65333 44.0819 8.44 42.6419 8.44H39.8819V13.96ZM58.1531 30V2.48H67.1931V30H58.1531ZM77.5106 30L69.3506 2.48H78.7906L83.0306 19.64L87.2706 2.48H96.3106L87.7106 30H77.5106ZM98.2703 30V2.48H117.59V8.56H107.99V13.44H116.75V18.48H107.99V23.72H117.59V30H98.2703Z" fill="#018ABE"/>
<path d="M129.6 30.64C127.92 30.64 126.213 30.4267 124.48 30C122.747 29.6 121.28 29.0533 120.08 28.36L121.52 21.84C123.067 22.6667 124.507 23.2133 125.84 23.48C127.2 23.72 128.453 23.84 129.6 23.84C130.667 23.84 131.467 23.6667 132 23.32C132.56 22.9733 132.84 22.5067 132.84 21.92C132.84 21.3867 132.533 20.9733 131.92 20.68C131.307 20.36 130.507 20.0667 129.52 19.8C128.56 19.5333 127.533 19.2267 126.44 18.88C125.347 18.5067 124.307 18.0267 123.32 17.44C122.36 16.8267 121.573 16.0267 120.96 15.04C120.347 14.0267 120.04 12.76 120.04 11.24C120.04 9.32 120.507 7.66667 121.44 6.28C122.373 4.86667 123.707 3.78667 125.44 3.04C127.173 2.26667 129.213 1.88 131.56 1.88C133.133 1.88 134.667 2.09333 136.16 2.52C137.68 2.92 138.893 3.46666 139.8 4.16L138.44 10.04C137.08 9.48 135.853 9.08 134.76 8.84C133.693 8.57333 132.68 8.44 131.72 8.44C130.6 8.44 129.747 8.6 129.16 8.92C128.573 9.24 128.28 9.66666 128.28 10.2C128.28 10.7067 128.587 11.12 129.2 11.44C129.813 11.76 130.6 12.0667 131.56 12.36C132.52 12.6533 133.547 12.9867 134.64 13.36C135.733 13.7333 136.76 14.2267 137.72 14.84C138.68 15.4533 139.467 16.2533 140.08 17.24C140.693 18.2267 141 19.4667 141 20.96C141 24.0533 139.987 26.44 137.96 28.12C135.96 29.8 133.173 30.64 129.6 30.64ZM141.699 30L149.299 2.48H162.259L170.219 30H160.419L159.379 24.72H152.259L151.099 30H141.699ZM153.099 19.8H158.419L155.819 7.76L153.099 19.8ZM172.372 30V2.48H191.332V8.56H180.972V14.12H190.572V19.48H180.972V30H172.372ZM194.598 30V2.48H213.918V8.56H204.318V13.44H213.078V18.48H204.318V23.72H213.918V30H194.598Z" fill="white"/>
<path d="M1.2 30H0.2V31H1.2V30ZM1.2 2.48V1.48H0.2V2.48H1.2ZM20.52 4.2L20.104 5.10938L20.1076 5.11102L20.52 4.2ZM26.08 8.96L25.2145 9.46106L25.2195 9.46949L26.08 8.96ZM23.52 26.32L22.875 25.5558L22.8715 25.5588L23.52 26.32ZM10.04 23H9.04V24H10.04V23ZM17.36 21.08L18.1362 21.7106L18.1424 21.7027L17.36 21.08ZM17.4 11.28L16.6276 11.9151L16.6353 11.9245L16.6432 11.9336L17.4 11.28ZM10.04 9.48V8.48H9.04V9.48H10.04ZM2.2 30V2.48H0.2V30H2.2ZM1.2 3.48H10.76V1.48H1.2V3.48ZM10.76 3.48C14.6761 3.48 17.773 4.04307 20.104 5.10937L20.936 3.29063C18.2536 2.06359 14.8439 1.48 10.76 1.48V3.48ZM20.1076 5.11102C22.4874 6.18819 24.1642 7.64683 25.2146 9.46103L26.9454 8.45896C25.6491 6.21983 23.6192 4.50514 20.9324 3.28898L20.1076 5.11102ZM25.2195 9.46949C26.3157 11.3208 26.88 13.4997 26.88 16.04H28.88C28.88 13.1936 28.2443 10.6525 26.9405 8.45051L25.2195 9.46949ZM26.88 16.04C26.88 20.1968 25.52 23.3233 22.875 25.5558L24.165 27.0842C27.3333 24.41 28.88 20.6832 28.88 16.04H26.88ZM22.8715 25.5588C20.2496 27.7923 16.1418 29 10.36 29V31C16.3649 31 21.0304 29.7544 24.1685 27.0812L22.8715 25.5588ZM10.36 29H1.2V31H10.36V29ZM10.04 24H12.6V22H10.04V24ZM12.6 24C14.9389 24 16.8532 23.2895 18.1361 21.7106L16.5839 20.4494C15.7868 21.4305 14.5277 22 12.6 22V24ZM18.1424 21.7027C19.3567 20.1771 19.92 18.2326 19.92 15.96H17.92C17.92 17.9007 17.4433 19.3696 16.5776 20.4573L18.1424 21.7027ZM19.92 15.96C19.92 13.8367 19.364 12.0241 18.1568 10.6264L16.6432 11.9336C17.4627 12.8825 17.92 14.19 17.92 15.96H19.92ZM18.1724 10.6449C16.9253 9.12816 14.9802 8.48 12.6 8.48V10.48C14.6465 10.48 15.9013 11.0318 16.6276 11.9151L18.1724 10.6449ZM12.6 8.48H10.04V10.48H12.6V8.48ZM9.04 9.48V23H11.04V9.48H9.04ZM47.2019 29.8L46.7779 30.7057L46.7859 30.7094L46.7939 30.713L47.2019 29.8ZM44.2019 27.4L45.0069 26.8068L44.2019 27.4ZM42.5219 23.84L43.4862 23.5753L42.5219 23.84ZM41.7619 19.44L42.7583 19.3556L42.6807 18.44H41.7619V19.44ZM39.8819 19.44V18.44H38.8819V19.44H39.8819ZM39.8819 30V31H40.8819V30H39.8819ZM31.1219 30H30.1219V31H31.1219V30ZM31.1219 2.48V1.48H30.1219V2.48H31.1219ZM51.8819 4.8L51.2545 5.57875L51.2605 5.58351L51.2664 5.58819L51.8819 4.8ZM53.5219 15.24L54.3428 15.8111L54.3485 15.8028L53.5219 15.24ZM49.4019 18.32L49.0017 17.4035L48.2764 17.7202L48.418 18.4989L49.4019 18.32ZM49.6819 19.76L50.6597 19.5505V19.5505L49.6819 19.76ZM50.0419 21L49.0989 21.3328L49.1013 21.3396L50.0419 21ZM51.3219 23L50.7287 23.8051L50.7385 23.8123L50.7484 23.8192L51.3219 23ZM55.2419 23.32L56.2392 23.247L56.1506 22.0357L54.9788 22.3552L55.2419 23.32ZM55.7219 29.88L56.0933 30.8085L56.7726 30.5367L56.7192 29.807L55.7219 29.88ZM54.0019 30.4L53.7894 29.4228L53.7639 29.4284L53.7388 29.4352L54.0019 30.4ZM39.8819 13.96H38.8819V14.96H39.8819V13.96ZM45.5619 13.32L46.0325 14.2024L46.0427 14.1968L45.5619 13.32ZM45.8019 9.08L45.2628 9.92227L45.275 9.93006L45.2874 9.93749L45.8019 9.08ZM39.8819 8.44V7.44H38.8819V8.44H39.8819ZM51.9619 29.64C50.1302 29.64 48.6944 29.3716 47.6098 28.887L46.7939 30.713C48.216 31.3484 49.9536 31.64 51.9619 31.64V29.64ZM47.6258 28.8943C46.5082 28.3712 45.645 27.6728 45.0069 26.8068L43.3968 27.9932C44.2521 29.1539 45.3888 30.0555 46.7779 30.7057L47.6258 28.8943ZM45.0069 26.8068C44.3413 25.9034 43.8309 24.8311 43.4862 23.5753L41.5575 24.1047C41.9595 25.5689 42.5691 26.8699 43.3968 27.9932L45.0069 26.8068ZM43.4862 23.5753C43.1308 22.2808 42.8871 20.8751 42.7583 19.3556L40.7654 19.5244C40.9033 21.1516 41.1662 22.6792 41.5575 24.1047L43.4862 23.5753ZM41.7619 18.44H39.8819V20.44H41.7619V18.44ZM38.8819 19.44V30H40.8819V19.44H38.8819ZM39.8819 29H31.1219V31H39.8819V29ZM32.1219 30V2.48H30.1219V30H32.1219ZM31.1219 3.48H42.4419V1.48H31.1219V3.48ZM42.4419 3.48C46.7447 3.48 49.6051 4.25002 51.2545 5.57875L52.5092 4.02124C50.3187 2.25664 46.8857 1.48 42.4419 1.48V3.48ZM51.2664 5.58819C52.9545 6.90628 53.8019 8.67386 53.8019 11H55.8019C55.8019 8.09947 54.7026 5.73372 52.4973 4.01181L51.2664 5.58819ZM53.8019 11C53.8019 12.3806 53.4312 13.5963 52.6953 14.6772L54.3485 15.8028C55.3192 14.377 55.8019 12.7661 55.8019 11H53.8019ZM52.701 14.6689C51.9863 15.6963 50.7878 16.6237 49.0017 17.4035L49.802 19.2365C51.8026 18.363 53.3508 17.237 54.3428 15.8111L52.701 14.6689ZM48.418 18.4989C48.5256 19.0908 48.621 19.582 48.7041 19.9695L50.6597 19.5505C50.5827 19.1913 50.4915 18.7225 50.3857 18.1411L48.418 18.4989ZM48.7041 19.9695C48.795 20.3937 48.9281 20.849 49.0989 21.3328L50.9849 20.6672C50.8356 20.2444 50.7288 19.8729 50.6597 19.5505L48.7041 19.9695ZM49.1013 21.3396C49.4772 22.3805 49.9918 23.2621 50.7287 23.8051L51.9151 22.1949C51.6387 21.9913 51.2999 21.5395 50.9824 20.6604L49.1013 21.3396ZM50.7484 23.8192C51.5042 24.3482 52.4482 24.56 53.4819 24.56V22.56C52.7022 22.56 52.2063 22.3984 51.8953 22.1808L50.7484 23.8192ZM53.4819 24.56C54.1606 24.56 54.8357 24.4673 55.505 24.2848L54.9788 22.3552C54.4747 22.4927 53.9765 22.56 53.4819 22.56V24.56ZM54.2445 23.393L54.7245 29.953L56.7192 29.807L56.2392 23.247L54.2445 23.393ZM55.3505 28.9515C54.8732 29.1424 54.3535 29.3002 53.7894 29.4228L54.2143 31.3772C54.8769 31.2331 55.5039 31.0442 56.0933 30.8085L55.3505 28.9515ZM53.7388 29.4352C53.2574 29.5665 52.6692 29.64 51.9619 29.64V31.64C52.8013 31.64 53.573 31.5535 54.265 31.3648L53.7388 29.4352ZM39.8819 14.96H41.4019V12.96H39.8819V14.96ZM41.4019 14.96C43.3892 14.96 44.9965 14.7549 46.0325 14.2024L45.0913 12.4376C44.5273 12.7385 43.3612 12.96 41.4019 12.96V14.96ZM46.0427 14.1968C47.2376 13.5416 47.8019 12.4135 47.8019 11.04H45.8019C45.8019 11.7998 45.5395 12.1918 45.081 12.4432L46.0427 14.1968ZM47.8019 11.04C47.8019 9.85111 47.3391 8.83613 46.3164 8.22251L45.2874 9.93749C45.598 10.1239 45.8019 10.4156 45.8019 11.04H47.8019ZM46.3409 8.23773C45.4286 7.65382 44.1382 7.44 42.6419 7.44V9.44C44.0256 9.44 44.8418 9.65284 45.2628 9.92227L46.3409 8.23773ZM42.6419 7.44H39.8819V9.44H42.6419V7.44ZM38.8819 8.44V13.96H40.8819V8.44H38.8819ZM58.1531 30H57.1531V31H58.1531V30ZM58.1531 2.48V1.48H57.1531V2.48H58.1531ZM67.1931 2.48H68.1931V1.48H67.1931V2.48ZM67.1931 30V31H68.1931V30H67.1931ZM59.1531 30V2.48H57.1531V30H59.1531ZM58.1531 3.48H67.1931V1.48H58.1531V3.48ZM66.1931 2.48V30H68.1931V2.48H66.1931ZM67.1931 29H58.1531V31H67.1931V29ZM77.5106 30L76.5519 30.2843L76.7641 31H77.5106V30ZM69.3506 2.48V1.48H68.0111L68.3919 2.76428L69.3506 2.48ZM78.7906 2.48L79.7614 2.24013L79.5736 1.48H78.7906V2.48ZM83.0306 19.64L82.0598 19.8799H84.0014L83.0306 19.64ZM87.2706 2.48V1.48H86.4876L86.2998 2.24013L87.2706 2.48ZM96.3106 2.48L97.2651 2.77827L97.6708 1.48H96.3106V2.48ZM87.7106 30V31H88.4458L88.6651 30.2983L87.7106 30ZM78.4694 29.7157L70.3094 2.19572L68.3919 2.76428L76.5519 30.2843L78.4694 29.7157ZM69.3506 3.48H78.7906V1.48H69.3506V3.48ZM77.8198 2.71987L82.0598 19.8799L84.0014 19.4001L79.7614 2.24013L77.8198 2.71987ZM84.0014 19.8799L88.2414 2.71987L86.2998 2.24013L82.0598 19.4001L84.0014 19.8799ZM87.2706 3.48H96.3106V1.48H87.2706V3.48ZM95.3561 2.18172L86.7561 29.7017L88.6651 30.2983L97.2651 2.77827L95.3561 2.18172ZM87.7106 29H77.5106V31H87.7106V29ZM98.2703 30H97.2703V31H98.2703V30ZM98.2703 2.48V1.48H97.2703V2.48H98.2703ZM117.59 2.48H118.59V1.48H117.59V2.48ZM117.59 8.56V9.56H118.59V8.56H117.59ZM107.99 8.56V7.56H106.99V8.56H107.99ZM107.99 13.44H106.99V14.44H107.99V13.44ZM116.75 13.44H117.75V12.44H116.75V13.44ZM116.75 18.48V19.48H117.75V18.48H116.75ZM107.99 18.48V17.48H106.99V18.48H107.99ZM107.99 23.72H106.99V24.72H107.99V23.72ZM117.59 23.72H118.59V22.72H117.59V23.72ZM117.59 30V31H118.59V30H117.59ZM99.2703 30V2.48H97.2703V30H99.2703ZM98.2703 3.48H117.59V1.48H98.2703V3.48ZM116.59 2.48V8.56H118.59V2.48H116.59ZM117.59 7.56H107.99V9.56H117.59V7.56ZM106.99 8.56V13.44H108.99V8.56H106.99ZM107.99 14.44H116.75V12.44H107.99V14.44ZM115.75 13.44V18.48H117.75V13.44H115.75ZM116.75 17.48H107.99V19.48H116.75V17.48ZM106.99 18.48V23.72H108.99V18.48H106.99ZM107.99 24.72H117.59V22.72H107.99V24.72ZM116.59 23.72V30H118.59V23.72H116.59ZM117.59 29H98.2703V31H117.59V29ZM124.48 30L124.719 29.029L124.712 29.0272L124.705 29.0256L124.48 30ZM120.08 28.36L119.104 28.1443L118.946 28.8595L119.58 29.2259L120.08 28.36ZM121.52 21.84L121.991 20.9581L120.828 20.3363L120.544 21.6243L121.52 21.84ZM125.84 23.48L125.644 24.4606L125.655 24.4628L125.666 24.4648L125.84 23.48ZM132 23.32L131.474 22.4697L131.464 22.4755L131.455 22.4816L132 23.32ZM131.92 20.68L131.457 21.5666L131.473 21.5746L131.489 21.5821L131.92 20.68ZM129.52 19.8L129.252 20.7635L129.259 20.7654L129.52 19.8ZM126.44 18.88L126.117 19.8263L126.127 19.8299L126.138 19.8332L126.44 18.88ZM123.32 17.44L122.782 18.2827L122.795 18.2913L122.809 18.2995L123.32 17.44ZM120.96 15.04L120.104 15.5578L120.111 15.5679L120.96 15.04ZM121.44 6.28L122.27 6.8384L122.274 6.83106L121.44 6.28ZM125.44 3.04L125.836 3.95849L125.847 3.95323L125.44 3.04ZM136.16 2.52L135.885 3.48152L135.895 3.4844L135.906 3.48707L136.16 2.52ZM139.8 4.16L140.774 4.38534L140.92 3.75725L140.407 3.36564L139.8 4.16ZM138.44 10.04L138.059 10.9647L139.149 11.4133L139.414 10.2653L138.44 10.04ZM134.76 8.84L134.517 9.81014L134.531 9.81364L134.546 9.81674L134.76 8.84ZM129.16 8.92L129.639 9.7979L129.16 8.92ZM129.2 11.44L129.663 10.5534V10.5534L129.2 11.44ZM131.56 12.36L131.268 13.3164L131.56 12.36ZM134.64 13.36L134.963 12.4137L134.64 13.36ZM137.72 14.84L138.258 13.9973L137.72 14.84ZM137.96 28.12L137.322 27.3501L137.317 27.3543L137.96 28.12ZM129.6 29.64C128.005 29.64 126.379 29.4376 124.719 29.029L124.241 30.971C126.048 31.4157 127.835 31.64 129.6 31.64V29.64ZM124.705 29.0256C123.042 28.6419 121.674 28.1261 120.58 27.4941L119.58 29.2259C120.886 29.9806 122.451 30.5581 124.255 30.9744L124.705 29.0256ZM121.056 28.5757L122.496 22.0557L120.544 21.6243L119.104 28.1443L121.056 28.5757ZM121.049 22.7219C122.658 23.5822 124.191 24.1701 125.644 24.4606L126.036 22.4994C124.822 22.2566 123.475 21.7512 121.991 20.9581L121.049 22.7219ZM125.666 24.4648C127.072 24.7129 128.385 24.84 129.6 24.84V22.84C128.522 22.84 127.328 22.7271 126.014 22.4952L125.666 24.4648ZM129.6 24.84C130.743 24.84 131.773 24.66 132.545 24.1584L131.455 22.4816C131.16 22.6733 130.59 22.84 129.6 22.84V24.84ZM132.526 24.1703C133.338 23.6679 133.84 22.9007 133.84 21.92H131.84C131.84 22.1127 131.782 22.2788 131.474 22.4697L132.526 24.1703ZM133.84 21.92C133.84 20.8892 133.198 20.1826 132.351 19.7779L131.489 21.5821C131.694 21.6802 131.777 21.7652 131.807 21.8058C131.827 21.8336 131.84 21.8596 131.84 21.92H133.84ZM132.383 19.7934C131.683 19.4282 130.808 19.1121 129.781 18.8346L129.259 20.7654C130.206 21.0212 130.931 21.2918 131.457 21.5666L132.383 19.7934ZM129.788 18.8365C128.841 18.5735 127.826 18.2703 126.742 17.9268L126.138 19.8332C127.241 20.183 128.279 20.4932 129.252 20.7635L129.788 18.8365ZM126.763 17.9337C125.735 17.5825 124.758 17.1315 123.831 16.5805L122.809 18.2995C123.855 18.9218 124.958 19.4308 126.117 19.8263L126.763 17.9337ZM123.858 16.5973C123.027 16.066 122.345 15.3745 121.809 14.5121L120.111 15.5679C120.801 16.6788 121.693 17.5873 122.782 18.2827L123.858 16.5973ZM121.815 14.5222C121.32 13.7035 121.04 12.6283 121.04 11.24H119.04C119.04 12.8917 119.373 14.3499 120.104 15.5578L121.815 14.5222ZM121.04 11.24C121.04 9.48849 121.463 8.03644 122.27 6.83837L120.61 5.72162C119.55 7.29689 119.04 9.15151 119.04 11.24H121.04ZM122.274 6.83106C123.088 5.59855 124.26 4.63712 125.836 3.95841L125.044 2.12159C123.153 2.93621 121.658 4.13478 120.606 5.72894L122.274 6.83106ZM125.847 3.95323C127.426 3.24894 129.321 2.88 131.56 2.88V0.879999C129.105 0.879999 126.921 1.28439 125.033 2.12677L125.847 3.95323ZM131.56 2.88C133.042 2.88 134.482 3.08072 135.885 3.48152L136.435 1.55847C134.851 1.10595 133.225 0.879999 131.56 0.879999V2.88ZM135.906 3.48707C137.343 3.86528 138.423 4.36553 139.193 4.95436L140.407 3.36564C139.364 2.5678 138.017 1.97472 136.414 1.55292L135.906 3.48707ZM138.826 3.93466L137.466 9.81466L139.414 10.2653L140.774 4.38534L138.826 3.93466ZM138.821 9.11532C137.423 8.53962 136.139 8.11891 134.974 7.86325L134.546 9.81674C135.568 10.0411 136.737 10.4204 138.059 10.9647L138.821 9.11532ZM135.003 7.86986C133.868 7.58617 132.773 7.44 131.72 7.44V9.44C132.587 9.44 133.519 9.5605 134.517 9.81014L135.003 7.86986ZM131.72 7.44C130.532 7.44 129.483 7.60497 128.681 8.0421L129.639 9.7979C130.011 9.59503 130.668 9.44 131.72 9.44V7.44ZM128.681 8.0421C127.869 8.48518 127.28 9.20337 127.28 10.2H129.28C129.28 10.13 129.278 9.99482 129.639 9.7979L128.681 8.0421ZM127.28 10.2C127.28 11.2134 127.933 11.9067 128.737 12.3266L129.663 10.5534C129.446 10.4404 129.351 10.3451 129.313 10.2942C129.285 10.2569 129.28 10.2351 129.28 10.2H127.28ZM128.737 12.3266C129.424 12.6846 130.273 13.0123 131.268 13.3164L131.852 11.4036C130.927 11.121 130.203 10.8354 129.663 10.5534L128.737 12.3266ZM131.268 13.3164C132.216 13.6061 133.232 13.936 134.317 14.3063L134.963 12.4137C133.861 12.0373 132.824 11.7006 131.852 11.4036L131.268 13.3164ZM134.317 14.3063C135.336 14.6542 136.29 15.113 137.182 15.6827L138.258 13.9973C137.23 13.3403 136.131 12.8124 134.963 12.4137L134.317 14.3063ZM137.182 15.6827C138.013 16.214 138.695 16.9055 139.231 17.7679L140.929 16.7121C140.239 15.6012 139.347 14.6927 138.258 13.9973L137.182 15.6827ZM139.231 17.7679C139.721 18.5568 140 19.6008 140 20.96H142C142 19.3326 141.666 17.8965 140.929 16.7121L139.231 17.7679ZM140 20.96C140 23.8136 139.078 25.8942 137.322 27.3501L138.598 28.8899C140.895 26.9858 142 24.2931 142 20.96H140ZM137.317 27.3543C135.554 28.8354 133.024 29.64 129.6 29.64V31.64C133.322 31.64 136.366 30.7646 138.603 28.8857L137.317 27.3543ZM141.699 30L140.735 29.7338L140.385 31H141.699V30ZM149.299 2.48V1.48H148.538L148.335 2.2138L149.299 2.48ZM162.259 2.48L163.22 2.20214L163.011 1.48H162.259V2.48ZM170.219 30V31H171.549L171.18 29.7221L170.219 30ZM160.419 30L159.438 30.1933L159.597 31H160.419V30ZM159.379 24.72L160.36 24.5267L160.201 23.72H159.379V24.72ZM152.259 24.72V23.72H151.455L151.282 24.5054L152.259 24.72ZM151.099 30V31H151.903L152.076 30.2146L151.099 30ZM153.099 19.8L152.124 19.5796L151.848 20.8H153.099V19.8ZM158.419 19.8V20.8H159.658L159.397 19.5889L158.419 19.8ZM155.819 7.76L156.797 7.54892L154.844 7.53964L155.819 7.76ZM142.663 30.2662L150.263 2.7462L148.335 2.2138L140.735 29.7338L142.663 30.2662ZM149.299 3.48H162.259V1.48H149.299V3.48ZM161.298 2.75785L169.258 30.2779L171.18 29.7221L163.22 2.20214L161.298 2.75785ZM170.219 29H160.419V31H170.219V29ZM161.4 29.8067L160.36 24.5267L158.398 24.9133L159.438 30.1933L161.4 29.8067ZM159.379 23.72H152.259V25.72H159.379V23.72ZM151.282 24.5054L150.122 29.7854L152.076 30.2146L153.236 24.9346L151.282 24.5054ZM151.099 29H141.699V31H151.099V29ZM153.099 20.8H158.419V18.8H153.099V20.8ZM159.397 19.5889L156.797 7.54892L154.842 7.97108L157.442 20.0111L159.397 19.5889ZM154.844 7.53964L152.124 19.5796L154.074 20.0204L156.794 7.98036L154.844 7.53964ZM172.372 30H171.372V31H172.372V30ZM172.372 2.48V1.48H171.372V2.48H172.372ZM191.332 2.48H192.332V1.48H191.332V2.48ZM191.332 8.56V9.56H192.332V8.56H191.332ZM180.972 8.56V7.56H179.972V8.56H180.972ZM180.972 14.12H179.972V15.12H180.972V14.12ZM190.572 14.12H191.572V13.12H190.572V14.12ZM190.572 19.48V20.48H191.572V19.48H190.572ZM180.972 19.48V18.48H179.972V19.48H180.972ZM180.972 30V31H181.972V30H180.972ZM173.372 30V2.48H171.372V30H173.372ZM172.372 3.48H191.332V1.48H172.372V3.48ZM190.332 2.48V8.56H192.332V2.48H190.332ZM191.332 7.56H180.972V9.56H191.332V7.56ZM179.972 8.56V14.12H181.972V8.56H179.972ZM180.972 15.12H190.572V13.12H180.972V15.12ZM189.572 14.12V19.48H191.572V14.12H189.572ZM190.572 18.48H180.972V20.48H190.572V18.48ZM179.972 19.48V30H181.972V19.48H179.972ZM180.972 29H172.372V31H180.972V29ZM194.598 30H193.598V31H194.598V30ZM194.598 2.48V1.48H193.598V2.48H194.598ZM213.918 2.48H214.918V1.48H213.918V2.48ZM213.918 8.56V9.56H214.918V8.56H213.918ZM204.318 8.56V7.56H203.318V8.56H204.318ZM204.318 13.44H203.318V14.44H204.318V13.44ZM213.078 13.44H214.078V12.44H213.078V13.44ZM213.078 18.48V19.48H214.078V18.48H213.078ZM204.318 18.48V17.48H203.318V18.48H204.318ZM204.318 23.72H203.318V24.72H204.318V23.72ZM213.918 23.72H214.918V22.72H213.918V23.72ZM213.918 30V31H214.918V30H213.918ZM195.598 30V2.48H193.598V30H195.598ZM194.598 3.48H213.918V1.48H194.598V3.48ZM212.918 2.48V8.56H214.918V2.48H212.918ZM213.918 7.56H204.318V9.56H213.918V7.56ZM203.318 8.56V13.44H205.318V8.56H203.318ZM204.318 14.44H213.078V12.44H204.318V14.44ZM212.078 13.44V18.48H214.078V13.44H212.078ZM213.078 17.48H204.318V19.48H213.078V17.48ZM203.318 18.48V23.72H205.318V18.48H203.318ZM204.318 24.72H213.918V22.72H204.318V24.72ZM212.918 23.72V30H214.918V23.72H212.918ZM213.918 29H194.598V31H213.918V29Z" fill="white" mask="url(#path-1-outside-1_17_20)"/>
</svg>
