<svg width="50" height="50" viewBox="0 0 50 50" fill="none" xmlns="http://www.w3.org/2000/svg">
<path d="M29.755 34.4434C30.2498 33.5059 30.5536 32.4219 30.5536 31.25C30.5536 27.8027 28.0624 25 24.9984 25C23.5054 25 22.1514 25.6738 21.1532 26.748C19.7383 23.8574 17.0302 21.875 13.888 21.875C9.2876 21.875 5.5552 26.0742 5.5552 31.25C5.5552 31.4453 5.5986 31.6211 5.60728 31.8066C2.35228 33.0859 0 36.5332 0 40.625C0 45.8008 3.7324 50 8.3328 50H29.1648C33.0014 50 36.1088 46.5039 36.1088 42.1875C36.1088 38.0957 33.3052 34.7852 29.755 34.4434ZM49.068 29.1406C40.9869 30.8691 33.5742 23.8965 33.5742 14.7168C33.5742 9.42383 36.0914 4.56055 40.1797 1.94336C40.8134 1.54297 40.6484 0.46875 39.9367 0.3125C38.9211 0.107422 37.9056 0 36.89 0C27.6979 0 20.2331 8.38867 20.2331 18.75C20.2331 19.5801 20.2938 20.3906 20.3893 21.1914C20.9014 21.6113 21.3962 22.0605 21.8389 22.5781C22.8284 22.1191 23.896 21.875 24.9984 21.875C29.5901 21.875 33.3312 26.084 33.3312 31.25C33.3312 31.6016 33.3138 31.9531 33.2791 32.2949C35.3276 33.3496 36.9594 35.1758 37.9229 37.4316C42.6448 37.0996 46.9241 34.5703 49.8232 30.5566C50.2832 29.9219 49.7798 28.9844 49.068 29.1406Z" fill="black"/>
</svg>
