<svg width="50" height="50" viewBox="0 0 50 50" fill="none" xmlns="http://www.w3.org/2000/svg">
<path d="M50 23.4375C50 21.1299 48.8759 19.1367 47.2222 18.0547V3.12598C47.2222 2.27148 46.6163 0 44.4444 0C43.8264 0 43.2127 0.232422 42.7101 0.685547L35.329 7.3291C31.6215 10.6631 26.967 12.5 22.2222 12.5H5.55556C2.48698 12.5 0 15.2979 0 18.75V28.125C0 31.5771 2.48698 34.375 5.55556 34.375H8.4809C8.36024 35.3984 8.29167 36.4395 8.29167 37.5C8.29167 41.3838 9.09549 45.0537 10.5104 48.334C10.9609 49.3779 11.9444 50 12.9757 50H19.4236C21.6849 50 23.0425 47.0859 21.6719 45.0625C20.2483 42.9609 19.4019 40.3398 19.4019 37.5C19.4019 36.415 19.5425 35.3721 19.7847 34.375H22.2222C26.967 34.375 31.6215 36.2119 35.3281 39.5459L42.7092 46.1895C43.2015 46.6326 43.8131 46.8744 44.4436 46.875C46.6068 46.875 47.2214 44.6504 47.2214 43.75V28.8213C48.8759 27.7383 50 25.7451 50 23.4375ZM41.6667 37.248L38.7977 34.666C34.1102 30.4473 28.2222 28.125 22.2222 28.125V18.75C28.2222 18.75 34.1102 16.4277 38.7977 12.209L41.6667 9.62695V37.248Z" fill="black"/>
</svg>
