<svg width="50" height="50" viewBox="0 0 50 50" fill="none" xmlns="http://www.w3.org/2000/svg">
<path d="M45.9355 0.144564L14.6885 9.37264C14.0542 9.5719 13.5 9.96827 13.1064 10.5041C12.7128 11.04 12.5004 11.6874 12.5 12.3523V37.8821C11.4767 37.6337 10.428 37.5052 9.375 37.4993C4.19922 37.4993 0 40.2983 0 43.7496C0 47.201 4.19922 50 9.375 50C14.5508 50 18.75 47.201 18.75 43.7496V20.928L43.75 13.6034V31.6327C42.7268 31.3835 41.6781 31.2547 40.625 31.2489C35.4492 31.2489 31.25 34.0479 31.25 37.4993C31.25 40.9506 35.4492 43.7496 40.625 43.7496C45.8008 43.7496 50 40.9516 50 37.4993V3.12228C49.9995 2.63166 49.8836 2.14805 49.6615 1.71057C49.4395 1.2731 49.1175 0.894053 48.7218 0.604115C48.326 0.314178 47.8676 0.121493 47.3835 0.0416562C46.8995 -0.0381807 46.4034 -0.00292699 45.9355 0.144564Z" fill="black"/>
</svg>
