<svg width="50" height="50" viewBox="0 0 50 50" fill="none" xmlns="http://www.w3.org/2000/svg">
<path d="M25 0C11.1895 0 0 11.1895 0 25C0 38.8105 11.1895 50 25 50C38.8105 50 50 38.8105 50 25C50 11.1895 38.8105 0 25 0ZM30.756 35.2923L21.8649 28.8306C21.5524 28.5988 21.371 28.2359 21.371 27.8528V10.8871C21.371 10.2218 21.9153 9.67742 22.5806 9.67742H27.4194C28.0847 9.67742 28.629 10.2218 28.629 10.8871V24.7681L35.0302 29.4254C35.5746 29.8185 35.6855 30.5746 35.2923 31.119L32.4496 35.0302C32.0564 35.5645 31.3004 35.6855 30.756 35.2923Z" fill="black"/>
</svg>
